<?xml version="1.0" standalone="no"?>
<!DOCTYPE svg PUBLIC "-//W3C//DTD SVG 20010904//EN"
 "http://www.w3.org/TR/2001/REC-SVG-20010904/DTD/svg10.dtd">
<svg version="1.0" xmlns="http://www.w3.org/2000/svg"
 width="640.000000pt" height="172.000000pt" viewBox="0 0 640.000000 172.000000"
 preserveAspectRatio="xMidYMid meet">

<g transform="translate(0.000000,172.000000) scale(0.100000,-0.100000)"
fill="#000000" stroke="none">
<path d="M871 1709 c-315 -41 -593 -265 -696 -561 l-28 -78 -58 0 c-94 0 -89
24 -89 -463 l0 -418 25 -24 c13 -14 36 -25 50 -25 19 0 28 -7 36 -28 16 -42
69 -91 111 -103 74 -19 164 26 190 96 11 33 15 35 55 35 30 0 67 -12 121 -39
154 -78 328 -111 480 -92 53 7 91 7 116 0 56 -15 112 5 167 59 26 26 73 63
105 82 170 104 318 321 365 535 17 77 17 273 0 350 -64 294 -284 540 -566 634
-86 29 -225 52 -290 50 -16 -1 -59 -5 -94 -10z m147 -87 c39 -57 40 -84 6
-111 -29 -23 -113 -56 -168 -66 -43 -8 -70 10 -81 53 -11 45 -44 72 -86 72
-59 0 -70 -23 -62 -136 6 -91 5 -95 -26 -158 -23 -48 -52 -84 -108 -136 l-77
-70 -108 0 c-127 0 -125 -4 -75 110 123 282 413 485 697 489 55 1 55 1 88 -47z
m152 28 c47 -12 121 -39 165 -60 78 -38 181 -107 173 -116 -2 -2 -36 5 -74 17
-90 26 -181 28 -216 5 -26 -17 -48 -61 -48 -97 0 -24 -9 -28 -77 -39 -93 -15
-129 -74 -82 -135 25 -31 47 -31 161 1 l67 18 73 -37 c40 -20 87 -37 103 -37
33 0 76 -19 82 -35 2 -7 -30 -10 -92 -9 -90 2 -97 4 -116 28 -56 71 -242 46
-323 -44 l-36 -40 -221 0 -221 0 67 72 c91 96 120 159 117 258 -1 41 -3 86 -4
100 -3 21 1 25 22 25 21 0 30 -10 52 -57 20 -42 34 -59 53 -64 69 -17 225 36
276 93 36 42 35 73 -6 135 l-25 38 22 0 c13 0 61 -9 108 -20z m319 -221 c98
-32 106 -36 143 -83 42 -53 97 -155 117 -218 11 -32 10 -43 -9 -84 -11 -26
-40 -69 -65 -95 -25 -27 -45 -52 -45 -56 0 -4 7 -26 14 -48 17 -48 10 -68 -48
-144 -56 -71 -73 -107 -87 -173 -6 -29 -12 -59 -14 -66 -3 -7 -62 56 -133 140
l-128 153 -117 3 -117 3 0 137 c0 93 -4 142 -12 150 -32 32 93 102 185 102 53
0 61 -3 88 -32 29 -32 31 -33 117 -33 48 -1 99 -4 113 -9 19 -5 31 -3 43 9 23
23 20 49 -9 83 -20 23 -38 32 -86 41 -33 5 -84 24 -113 41 -64 36 -105 38
-195 10 -74 -24 -91 -21 -91 14 0 30 25 46 72 46 56 0 81 20 100 80 10 29 23
58 30 62 24 16 142 0 247 -33z m-531 -711 l2 -308 -460 0 -460 0 0 294 c0 162
3 302 6 310 6 15 52 16 458 14 l451 -3 3 -307z m834 144 c-1 -191 -55 -350
-169 -499 -49 -64 -120 -133 -137 -133 -3 0 -6 24 -6 54 0 39 7 66 25 97 13
24 32 78 41 119 20 89 23 97 87 179 65 86 72 105 57 164 l-12 48 46 49 c25 27
46 55 46 62 0 7 5 5 11 -5 6 -11 11 -70 11 -135z m-565 -169 c3 -8 -14 -13
-54 -15 l-58 -3 0 -120 0 -120 163 -3 162 -2 0 -120 0 -120 -28 0 c-23 0 -30
6 -40 35 -16 43 -61 81 -112 95 -73 20 -146 -15 -180 -85 -18 -38 -26 -45 -51
-45 l-29 0 0 260 0 261 112 -3 c75 -2 113 -7 115 -15z m108 -125 c90 -106 94
-98 -50 -98 l-125 0 0 85 0 85 58 0 57 0 60 -72z m-375 -293 l0 -85 -268 0
-268 0 -12 35 c-16 43 -61 81 -112 95 -73 20 -146 -15 -180 -86 -19 -39 -26
-45 -49 -42 -25 3 -26 5 -29 86 l-3 82 461 0 460 0 0 -85z m-632 -11 c48 -34
65 -101 37 -154 -33 -65 -118 -82 -174 -35 -61 52 -60 133 4 183 33 26 100 29
133 6z m960 0 c95 -67 49 -214 -68 -214 -32 0 -48 7 -77 33 -32 30 -36 39 -36
82 0 43 4 52 36 82 30 27 45 33 80 33 23 0 53 -7 65 -16z m-211 -161 c9 -21
19 -41 21 -45 2 -5 -47 -8 -110 -8 -125 0 -237 22 -329 64 l-54 24 227 1 228
1 17 -37z"/>
<path d="M401 911 c-57 -33 -107 -65 -112 -72 -5 -8 -9 -64 -9 -125 0 -93 3
-113 18 -126 18 -16 196 -118 205 -118 3 0 53 27 111 61 l106 61 0 127 0 126
-57 33 c-32 17 -81 45 -108 61 l-51 30 -103 -58z m175 -33 c41 -23 74 -44 74
-47 0 -4 -34 -25 -74 -47 l-74 -41 -71 41 c-39 22 -70 44 -68 48 2 7 123 84
136 87 2 1 37 -18 77 -41z m-112 -163 c14 -11 16 -27 14 -99 l-3 -85 -72 42
-73 42 0 88 0 88 58 -32 c32 -17 66 -37 76 -44z m214 -12 l-3 -86 -73 -43
c-53 -32 -74 -40 -78 -30 -3 7 -4 46 -2 86 l3 73 70 43 c39 24 74 44 78 44 4
0 6 -39 5 -87z"/>
<path d="M209 221 c-32 -26 -32 -86 0 -112 52 -42 131 -8 131 57 0 63 -80 96
-131 55z m82 -37 c17 -21 0 -49 -32 -49 -24 0 -36 23 -25 51 7 19 40 18 57 -2z"/>
<path d="M1169 221 c-17 -13 -23 -29 -23 -56 0 -69 85 -102 132 -52 66 70 -33
169 -109 108z m82 -37 c17 -21 0 -49 -32 -49 -24 0 -36 23 -25 51 7 19 40 18
57 -2z"/>
<path d="M4993 1038 c-2 -5 -2 -8 1 -8 3 0 -3 -9 -14 -20 -26 -26 -29 -124 -4
-134 9 -3 58 -6 110 -6 l94 0 2 63 c1 71 0 99 -7 106 -8 7 -177 7 -182 -1z
m55 -31 c5 -24 -15 -21 -28 4 -10 18 -9 20 7 17 10 -2 19 -11 21 -21z m53 14
c15 8 18 6 13 -8 -5 -17 -5 -17 9 0 21 25 26 21 23 -18 -1 -19 2 -37 8 -39 7
-3 5 -10 -5 -18 -8 -7 -20 -22 -26 -32 -14 -25 -75 -32 -93 -12 -10 13 -7 16
13 21 24 6 25 9 20 63 -4 46 -3 55 7 45 9 -8 19 -9 31 -2z m-62 -50 c16 -10 8
-41 -11 -41 -7 0 -20 5 -28 10 -12 8 -11 10 8 10 24 0 30 15 10 23 -7 3 -8 6
-3 6 6 0 16 -3 24 -8z m131 -81 c0 -5 -7 -10 -15 -10 -8 0 -15 5 -15 10 0 6 7
10 15 10 8 0 15 -4 15 -10z"/>
<path d="M5076 984 c-9 -23 -8 -24 12 -23 12 0 13 2 3 6 -10 4 -10 7 -1 13 8
5 8 10 2 14 -5 3 -13 -1 -16 -10z"/>
<path d="M5040 898 c0 -4 6 -8 14 -8 8 0 17 4 20 8 2 4 -4 8 -15 8 -10 0 -19
-4 -19 -8z"/>
<path d="M5374 989 c-15 -17 -19 -35 -18 -95 l1 -74 -38 0 c-29 0 -42 -6 -53
-22 -21 -32 -25 -90 -10 -127 11 -27 18 -31 52 -31 38 0 40 -2 46 -37 3 -21 6
-66 6 -100 0 -77 19 -119 73 -159 49 -36 135 -55 237 -51 l64 2 9 40 c8 36 5
120 -4 130 -2 2 -17 7 -33 11 -21 5 -27 4 -22 -5 4 -6 2 -11 -3 -11 -6 0 -11
5 -11 10 0 6 -9 10 -19 10 -38 0 -59 31 -64 98 l-5 63 69 -2 c89 -3 96 4 91
83 -5 79 -17 92 -79 90 -70 -3 -75 3 -79 99 -3 52 -9 86 -17 91 -6 4 -48 8
-93 8 -70 0 -84 -3 -100 -21z m166 -79 c0 -5 -2 -10 -4 -10 -3 0 -8 5 -11 10
-3 6 -1 10 4 10 6 0 11 -4 11 -10z m-60 -9 c0 -6 -4 -13 -10 -16 -5 -3 -10 1
-10 9 0 9 5 16 10 16 6 0 10 -4 10 -9z m-95 -41 c3 -5 1 -10 -4 -10 -6 0 -11
5 -11 10 0 6 2 10 4 10 3 0 8 -4 11 -10z m101 -108 c-12 -12 -18 8 -10 35 l8
28 4 -28 c2 -16 1 -31 -2 -35z m78 29 c3 -5 -1 -11 -9 -14 -9 -4 -12 -1 -8 9
6 16 10 17 17 5z m-189 -11 c3 -5 1 -10 -4 -10 -6 0 -11 5 -11 10 0 6 2 10 4
10 3 0 8 -4 11 -10z m57 3 c-6 -2 -9 -10 -6 -15 4 -7 2 -8 -5 -4 -13 9 -5 26
12 25 9 0 8 -2 -1 -6z m205 -33 c1 -11 -4 -20 -13 -20 -17 0 -19 26 -1 33 6 3
12 6 12 6 1 1 1 -8 2 -19z m-93 -5 c-4 -8 -11 -12 -16 -9 -6 4 -5 10 3 15 19
12 19 11 13 -6z m-64 -15 c-24 -15 -37 -11 -16 5 11 8 22 12 25 9 3 -3 -1 -9
-9 -14z m214 5 c-7 -16 -24 -21 -24 -6 0 8 7 13 27 20 1 1 0 -6 -3 -14z m-389
-5 c3 -5 1 -10 -4 -10 -6 0 -11 5 -11 10 0 6 2 10 4 10 3 0 8 -4 11 -10z m110
0 c3 -5 1 -10 -4 -10 -6 0 -11 5 -11 10 0 6 2 10 4 10 3 0 8 -4 11 -10z m-39
-24 c17 -18 18 -36 2 -36 -7 -1 -3 -6 10 -13 12 -7 20 -16 16 -20 -4 -3 -15
-2 -26 4 -13 7 -17 16 -13 30 5 14 1 25 -12 34 -12 9 -13 14 -5 15 7 0 20 -6
28 -14z m288 -34 c-5 -8 -44 24 -44 37 0 9 8 6 23 -10 13 -13 22 -25 21 -27z
m-59 28 c-3 -5 -14 -10 -23 -10 -15 0 -15 2 -2 10 20 13 33 13 25 0z m-145
-10 c0 -5 -4 -10 -10 -10 -5 0 -10 5 -10 10 0 6 5 10 10 10 6 0 10 -4 10 -10z
m30 -19 c0 -5 -6 -12 -12 -14 -10 -4 -9 -8 2 -16 11 -8 12 -13 3 -22 -9 -9
-15 -6 -25 10 -7 11 -20 21 -28 21 -8 1 -1 7 15 15 37 16 45 18 45 6z m50 -17
c0 -3 -7 -12 -15 -21 -20 -19 -32 -10 -14 11 14 15 29 21 29 10z m-119 -33
c-7 -5 -10 -14 -7 -20 4 -6 3 -11 -3 -11 -5 0 -13 5 -17 11 -7 11 12 29 31 29
6 0 4 -4 -4 -9z m32 -37 c-8 -21 -23 -17 -23 6 0 13 5 18 14 14 8 -3 12 -12 9
-20z m82 17 c3 -5 1 -12 -4 -15 -5 -3 -11 1 -15 9 -6 16 9 21 19 6z m-45 -31
c0 -21 -15 -27 -25 -10 -7 12 2 30 16 30 5 0 9 -9 9 -20z m73 0 c-3 -11 -12
-20 -20 -20 -13 0 -13 -3 -3 -15 10 -12 10 -15 -4 -15 -22 0 -21 39 2 56 24
19 31 17 25 -6z m-113 -26 c0 -8 -4 -12 -10 -9 -5 3 -10 10 -10 16 0 5 5 9 10
9 6 0 10 -7 10 -16z m46 -31 c-10 -10 -19 5 -10 18 6 11 8 11 12 0 2 -7 1 -15
-2 -18z m-96 -34 c0 -6 -4 -7 -10 -4 -5 3 -10 11 -10 16 0 6 5 7 10 4 6 -3 10
-11 10 -16z m140 11 c0 -5 -4 -10 -10 -10 -5 0 -10 5 -10 10 0 6 5 10 10 10 6
0 10 -4 10 -10z m-110 -35 c0 -8 -4 -15 -10 -15 -5 0 -10 7 -10 15 0 8 5 15
10 15 6 0 10 -7 10 -15z m180 0 c0 -8 -4 -15 -10 -15 -5 0 -10 7 -10 15 0 8 5
15 10 15 6 0 10 -7 10 -15z m-50 -5 c0 -5 -4 -10 -10 -10 -5 0 -10 5 -10 10 0
6 5 10 10 10 6 0 10 -4 10 -10z m-163 -32 c-3 -7 -5 -2 -5 12 0 14 2 19 5 13
2 -7 2 -19 0 -25z m58 2 c-2 -16 0 -32 4 -34 12 -8 44 31 37 42 -3 6 1 13 9
16 12 4 15 -1 13 -24 -1 -16 -5 -28 -8 -28 -19 2 -28 -4 -33 -22 -3 -11 -10
-20 -16 -20 -6 0 -8 7 -5 15 4 8 2 15 -4 15 -14 0 -24 29 -17 51 10 30 24 22
20 -11z m215 9 c0 -5 -4 -9 -8 -9 -5 0 -9 7 -9 15 0 8 4 12 9 9 4 -3 8 -9 8
-15z m-54 -44 c20 -19 4 -20 -22 0 -12 9 -14 14 -6 15 7 0 20 -7 28 -15z"/>
<path d="M2375 991 l-50 -6 -1 -338 c0 -259 3 -340 12 -348 7 -6 28 -10 46
-10 18 1 62 1 98 1 40 0 67 5 72 13 4 6 8 68 8 136 l0 125 35 -50 c19 -27 35
-54 35 -61 0 -7 9 -17 20 -23 11 -6 26 -25 34 -43 7 -18 30 -47 50 -65 36 -31
40 -32 126 -32 85 0 90 1 95 23 10 40 1 655 -10 666 -12 12 -200 19 -211 8 -4
-3 -9 -70 -12 -148 -5 -133 -6 -140 -20 -113 -8 16 -22 38 -32 49 -10 11 -29
43 -44 70 -74 143 -108 163 -251 146z m25 -55 c0 -3 -4 -8 -10 -11 -5 -3 -10
-1 -10 4 0 6 5 11 10 11 6 0 10 -2 10 -4z m105 -36 c3 -5 1 -10 -4 -10 -6 0
-11 5 -11 10 0 6 2 10 4 10 3 0 8 -4 11 -10z m358 -14 c16 -12 15 -13 -8 -13
-15 0 -25 5 -25 13 0 17 10 17 33 0z m-63 -16 c0 -5 -2 -10 -4 -10 -3 0 -8 5
-11 10 -3 6 -1 10 4 10 6 0 11 -4 11 -10z m-196 -16 c4 -10 1 -14 -6 -12 -15
5 -23 28 -10 28 5 0 13 -7 16 -16z m303 -4 c1 -11 -4 -20 -13 -20 -16 0 -16 2
-8 24 8 22 19 20 21 -4z m-160 -12 c-3 -8 -6 -5 -6 6 -1 11 2 17 5 13 3 -3 4
-12 1 -19z m-317 -4 c0 -8 -4 -12 -10 -9 -5 3 -10 10 -10 16 0 5 5 9 10 9 6 0
10 -7 10 -16z m70 7 c0 -5 -6 -12 -12 -14 -8 -4 -4 -8 9 -12 19 -6 20 -9 8
-21 -7 -8 -16 -14 -18 -14 -8 0 -16 42 -10 56 6 16 23 19 23 5z m75 -1 c3 -5
1 -10 -4 -10 -6 0 -11 5 -11 10 0 6 2 10 4 10 3 0 8 -4 11 -10z m266 -10 c6 0
7 5 4 10 -3 6 0 10 9 10 8 0 13 -8 11 -17 -1 -10 -10 -17 -19 -17 -9 1 -16 -3
-17 -10 0 -6 -4 -2 -8 9 -5 11 -6 24 -3 30 3 5 7 4 10 -3 2 -7 8 -12 13 -12z
m-51 -21 c-7 -11 -14 -18 -17 -15 -8 8 5 36 17 36 7 0 7 -6 0 -21z m-397 -9
c-3 -11 -7 -20 -9 -20 -2 0 -4 9 -4 20 0 11 4 20 9 20 5 0 7 -9 4 -20z m517 0
c0 -5 -8 -10 -17 -10 -15 0 -16 2 -3 10 19 12 20 12 20 0z m-360 -10 c0 -5 -2
-10 -4 -10 -3 0 -8 5 -11 10 -3 6 -1 10 4 10 6 0 11 -4 11 -10z m70 -11 c0 -5
-4 -9 -10 -9 -5 0 -10 7 -10 16 0 8 5 12 10 9 6 -3 10 -10 10 -16z m130 -1 c0
-18 -2 -20 -9 -8 -6 8 -7 18 -5 22 9 14 14 9 14 -14z m-282 -13 c-3 -3 -9 2
-12 12 -6 14 -5 15 5 6 7 -7 10 -15 7 -18z m182 5 c0 -5 -2 -10 -4 -10 -3 0
-8 5 -11 10 -3 6 -1 10 4 10 6 0 11 -4 11 -10z m255 -20 c19 -36 19 -45 1 -28
-8 7 -12 16 -9 21 2 4 -3 10 -11 13 -9 3 -13 10 -10 15 8 14 12 11 29 -21z
m-353 -17 c3 -33 7 -38 31 -41 15 -2 27 1 27 7 0 6 -6 11 -12 11 -9 0 -8 4 2
10 13 9 13 10 0 11 -8 0 -10 3 -4 5 19 8 64 -15 64 -32 0 -11 -5 -14 -16 -10
-9 4 -22 1 -30 -5 -20 -16 -58 -7 -69 19 -5 12 -18 22 -27 22 -10 0 -18 5 -18
11 0 6 7 9 15 5 9 -3 15 0 15 9 0 32 19 13 22 -22z m-157 17 c3 -5 18 -10 33
-10 20 -1 23 -3 12 -9 -21 -13 -70 -2 -70 15 0 16 16 19 25 4z m385 1 c0 -5 3
-18 7 -28 6 -17 6 -17 -10 -1 -19 18 -22 38 -7 38 6 0 10 -4 10 -9z m-361 -40
c9 -6 10 -11 2 -15 -6 -4 -11 -3 -11 3 0 6 -7 7 -17 4 -11 -4 -14 -3 -9 5 8
14 16 15 35 3z m71 5 c0 -11 -19 -15 -25 -6 -3 5 1 10 9 10 9 0 16 -2 16 -4z
m38 -16 c7 -11 10 -20 6 -20 -7 0 -34 27 -34 34 0 13 16 5 28 -14z m362 4 c0
-3 -7 -12 -15 -20 -16 -17 -18 -14 -9 10 6 15 24 23 24 10z m-438 -36 c-9 -9
-12 -7 -12 12 0 19 3 21 12 12 9 -9 9 -15 0 -24z m234 0 c-14 -8 -15 -12 -6
-18 7 -5 13 -25 13 -47 0 -35 2 -38 29 -39 36 -1 42 -8 30 -30 -8 -14 -6 -21
6 -31 15 -11 14 -12 -10 -13 -14 0 -28 6 -31 13 -4 9 -7 9 -17 0 -11 -10 -10
-14 3 -19 9 -3 15 -10 12 -15 -3 -4 -13 -5 -22 -2 -11 5 -14 3 -9 -6 6 -8 -2
-7 -23 3 -17 9 -31 21 -31 26 0 16 17 12 24 -6 8 -21 25 -8 19 15 -3 11 -11
17 -18 15 -7 -3 -16 0 -20 5 -3 6 -11 8 -17 5 -7 -5 -9 -1 -5 9 4 10 -2 22
-16 33 -15 11 -17 15 -4 11 9 -4 17 -4 17 -1 0 9 -28 34 -38 34 -13 0 -36 29
-29 36 3 4 14 -1 23 -11 10 -10 31 -22 47 -27 17 -6 26 -16 23 -23 -2 -8 3
-16 12 -20 16 -6 16 -7 0 -19 -10 -7 -15 -16 -12 -19 4 -3 13 1 22 10 13 13
17 13 26 2 15 -19 43 -20 50 -3 4 10 -2 14 -19 14 -33 0 -56 26 -49 56 5 17 2
24 -9 24 -8 0 -18 -6 -21 -12 -3 -7 -3 -3 0 10 4 16 1 22 -12 22 -13 0 -14 3
-4 15 7 8 16 12 21 9 5 -3 16 2 25 11 12 12 20 13 28 5 8 -8 6 -14 -8 -22z
m164 22 c0 -5 -7 -10 -16 -10 -8 0 -12 5 -9 10 3 6 10 10 16 10 5 0 9 -4 9
-10z m100 -6 c0 -7 -27 -34 -34 -34 -12 0 -6 28 7 33 17 8 27 8 27 1z m-553
-16 c-6 -4 -12 -15 -13 -25 -3 -56 -2 -55 -24 -33 -25 25 -26 41 -2 34 16 -5
16 -5 0 9 -25 20 -23 23 17 23 20 0 30 -3 22 -8z m479 -8 c16 0 24 -5 23 -17
0 -12 -2 -13 -6 -5 -4 10 -8 10 -19 1 -8 -6 -14 -8 -15 -3 0 5 -7 -4 -14 -21
-14 -29 -15 -29 -21 -7 -3 12 -10 22 -15 22 -14 0 -11 28 4 33 6 3 18 4 25 1
8 -2 25 -4 38 -4z m-349 -25 c2 -6 -11 -16 -27 -22 -26 -10 -32 -9 -37 3 -3 8
-9 14 -15 14 -5 0 -7 -4 -3 -9 7 -12 -12 -24 -26 -16 -17 11 23 34 49 28 13
-3 22 -1 22 7 0 14 32 9 37 -5z m243 11 c0 -2 -7 -6 -15 -10 -8 -3 -15 -1 -15
4 0 6 7 10 15 10 8 0 15 -2 15 -4z m170 -21 c0 -8 -4 -15 -10 -15 -5 0 -10 7
-10 15 0 8 5 15 10 15 6 0 10 -7 10 -15z m-160 -5 c0 -5 -7 -10 -16 -10 -8 0
-12 5 -9 10 3 6 10 10 16 10 5 0 9 -4 9 -10z m-40 -15 c0 -9 -6 -12 -15 -9 -8
4 -12 10 -9 15 8 14 24 10 24 -6z m85 -25 c7 0 20 7 29 15 20 20 33 19 45 -3
15 -28 9 -61 -12 -68 -15 -5 -17 -8 -6 -15 11 -6 9 -12 -7 -26 -12 -10 -19
-23 -17 -30 2 -6 0 -14 -6 -17 -5 -4 -12 3 -16 14 -5 16 -10 18 -25 10 -10 -6
-28 -10 -39 -10 -12 0 -21 -5 -21 -12 0 -9 -3 -9 -11 -1 -8 8 -8 16 0 30 7 13
10 14 11 4 0 -11 3 -10 13 4 10 13 21 16 40 11 21 -5 25 -3 21 9 -4 9 -11 14
-18 12 -11 -4 -36 16 -36 27 0 4 11 4 24 0 13 -3 27 -1 30 5 4 5 13 8 21 4 8
-3 15 0 15 6 0 6 -10 11 -23 11 -13 0 -35 5 -49 12 -25 12 -25 12 -4 23 16 8
22 8 24 -2 2 -7 10 -13 17 -13z m-345 0 c0 -5 -4 -10 -10 -10 -5 0 -10 5 -10
10 0 6 5 10 10 10 6 0 10 -4 10 -10z m463 -20 c-8 -29 -21 -25 -15 5 2 14 8
23 12 20 5 -3 6 -14 3 -25z m-526 0 c3 -11 9 -17 14 -14 5 3 9 0 9 -6 0 -6 -8
-10 -17 -8 -10 1 -24 -1 -30 -5 -14 -9 -16 -3 -7 31 8 27 24 29 31 2z m93 -35
c0 -8 5 -14 11 -12 6 1 14 -4 16 -11 4 -11 1 -12 -13 -5 -11 5 -31 9 -46 8
-16 0 -28 3 -28 7 0 4 9 8 20 8 11 0 20 5 20 10 0 6 5 10 10 10 6 0 10 -7 10
-15z m37 9 c-3 -3 -12 -4 -19 -1 -8 3 -5 6 6 6 11 1 17 -2 13 -5z m-117 -32
c0 -8 -6 -12 -14 -9 -9 4 -17 -2 -21 -14 -4 -11 -9 -18 -11 -16 -3 2 0 15 6
29 13 27 40 34 40 10z m502 -27 c4 -17 1 -25 -9 -25 -8 0 -11 5 -8 10 3 6 1
10 -5 10 -7 0 -10 -6 -8 -12 3 -7 -5 -20 -16 -30 -17 -14 -18 -17 -5 -18 9 0
20 7 23 16 5 14 8 14 23 -1 13 -14 14 -18 3 -25 -11 -7 -11 -11 -1 -24 8 -9 9
-16 3 -16 -6 0 -18 -3 -28 -7 -14 -5 -16 -2 -10 20 5 23 3 27 -14 27 -11 0
-20 -4 -20 -10 0 -5 5 -10 11 -10 5 0 7 -4 4 -10 -15 -25 -51 8 -46 43 1 4 -6
7 -14 7 -8 0 -15 5 -15 10 0 15 16 12 30 -5 15 -18 36 -5 46 28 8 28 34 58 44
52 4 -3 10 -16 12 -30z m-397 -5 c-3 -5 -14 -10 -23 -10 -15 0 -15 2 -2 10 20
13 33 13 25 0z m240 -44 c14 18 14 17 15 -15 0 -30 -2 -32 -17 -20 -13 11 -17
11 -20 2 -7 -19 -21 -15 -28 7 -4 11 -14 19 -22 18 -9 -2 -18 3 -20 10 -3 7 1
10 11 6 10 -4 16 -1 16 7 0 7 10 3 25 -11 25 -23 25 -23 40 -4z m-405 -6 c0
-5 -4 -10 -10 -10 -5 0 -10 5 -10 10 0 6 5 10 10 10 6 0 10 -4 10 -10z m37 4
c-3 -3 -12 -4 -19 -1 -8 3 -5 6 6 6 11 1 17 -2 13 -5z m129 -16 c1 -8 5 -25 8
-36 8 -24 -4 -34 -24 -21 -12 7 -12 9 -2 9 8 0 12 5 10 12 -5 15 -38 19 -38 5
0 -8 -3 -7 -9 1 -4 8 -12 13 -17 12 -5 -1 -10 3 -12 9 -2 6 3 11 11 11 9 0 17
-6 20 -12 2 -8 9 -5 18 10 15 24 31 25 35 0z m304 -58 c0 -5 -8 -7 -17 -4 -14
5 -15 4 -4 -4 9 -6 11 -17 7 -28 -7 -17 -9 -16 -23 9 -19 38 -11 62 17 47 11
-6 20 -15 20 -20z m-100 4 c0 -8 -5 -12 -10 -9 -6 4 -8 11 -5 16 9 14 15 11
15 -7z m-320 -10 c0 -8 -4 -12 -10 -9 -5 3 -10 10 -10 16 0 5 5 9 10 9 6 0 10
-7 10 -16z m470 -20 c0 -8 -6 -14 -14 -14 -16 0 -39 24 -30 32 10 10 44 -4 44
-18z m-357 -24 c-3 -3 -8 0 -10 7 -2 7 -11 9 -19 6 -8 -3 -14 -1 -14 5 0 18
24 20 37 3 6 -9 9 -18 6 -21z m391 16 c-6 -16 -24 -23 -24 -8 0 10 22 33 27
28 2 -2 1 -11 -3 -20z"/>
<path d="M2820 649 c0 -5 5 -7 10 -4 6 3 10 8 10 11 0 2 -4 4 -10 4 -5 0 -10
-5 -10 -11z"/>
<path d="M3230 811 c-76 -24 -96 -38 -135 -96 -47 -71 -62 -161 -39 -247 20
-74 56 -118 129 -156 45 -23 60 -26 150 -25 123 1 198 29 239 90 31 44 32 59
8 72 -23 12 -189 6 -226 -8 -37 -15 -52 -9 -58 23 -5 26 -4 26 61 28 36 1 101
1 144 0 43 -1 88 3 99 9 18 10 20 17 13 77 -7 67 -42 168 -44 126 -1 -24 -19
-44 -39 -44 -11 0 -12 3 -4 13 8 10 6 16 -9 25 -10 7 -19 20 -19 29 0 14 2 14
20 -2 31 -28 46 -5 19 29 -25 32 -45 41 -142 61 -87 18 -97 18 -167 -4z m221
-34 c-13 -13 -26 -3 -16 12 3 6 11 8 17 5 6 -4 6 -10 -1 -17z m-116 3 c3 -5 1
-10 -4 -10 -6 0 -11 5 -11 10 0 6 2 10 4 10 3 0 8 -4 11 -10z m75 -4 c0 -3 -4
-8 -10 -11 -5 -3 -10 -1 -10 4 0 6 5 11 10 11 6 0 10 -2 10 -4z m60 -17 c0 -5
5 -7 10 -4 6 3 10 -3 10 -14 0 -29 -14 -26 -28 4 -7 15 -8 25 -2 25 6 0 10 -5
10 -11z m-140 -9 c0 -5 -5 -10 -11 -10 -5 0 -7 5 -4 10 3 6 8 10 11 10 2 0 4
-4 4 -10z m116 -19 c-4 -6 -13 -11 -19 -10 -9 0 -9 2 0 5 7 3 9 13 6 22 -5 13
-3 14 7 5 7 -6 9 -16 6 -22z m-61 -30 c2 -22 0 -31 -8 -28 -12 4 -19 45 -10
60 8 13 13 3 18 -32z m-85 19 c0 -5 -2 -10 -4 -10 -3 0 -8 5 -11 10 -3 6 -1
10 4 10 6 0 11 -4 11 -10z m-70 -6 c0 -8 -32 -33 -43 -34 -4 0 -2 9 5 20 12
19 38 28 38 14z m-100 -22 c0 -30 13 -34 27 -10 7 13 12 18 13 12 0 -15 -39
-64 -51 -64 -5 0 -9 5 -9 10 0 6 8 10 17 10 14 0 13 4 -5 23 -12 13 -19 27
-15 30 12 13 23 7 23 -11z m314 12 c17 -7 22 -29 7 -38 -4 -3 -13 6 -19 19
-12 27 -12 28 12 19z m-182 -26 c-7 -7 -12 -8 -12 -2 0 14 12 26 19 19 2 -3
-1 -11 -7 -17z m100 -18 c12 -19 13 -19 34 1 14 13 24 17 29 10 3 -6 1 -11 -6
-11 -6 0 -22 -11 -34 -24 -16 -18 -29 -22 -54 -18 -39 5 -52 29 -26 48 26 19
43 17 57 -6z m-149 -53 c-18 -11 -25 -5 -17 16 4 13 9 14 19 4 11 -10 10 -14
-2 -20z m217 24 c0 -6 -4 -13 -10 -16 -5 -3 -10 1 -10 9 0 9 5 16 10 16 6 0
10 -4 10 -9z m126 -8 c6 -10 8 -27 4 -37 -5 -16 -8 -17 -16 -5 -10 15 -13 59
-4 59 3 0 10 -8 16 -17z m-56 -14 c0 -6 -4 -7 -10 -4 -5 3 -10 11 -10 16 0 6
5 7 10 4 6 -3 10 -11 10 -16z m-400 1 c0 -5 -5 -10 -11 -10 -5 0 -7 5 -4 10 3
6 8 10 11 10 2 0 4 -4 4 -10z m50 -4 c0 -11 -19 -15 -25 -6 -3 5 1 10 9 10 9
0 16 -2 16 -4z m140 -26 c0 -5 -4 -10 -9 -10 -6 0 -13 5 -16 10 -3 6 1 10 9
10 9 0 16 -4 16 -10z m90 -6 c0 -9 -5 -14 -12 -12 -18 6 -21 28 -4 28 9 0 16
-7 16 -16z m90 7 c0 -13 -28 -22 -35 -11 -3 4 1 11 7 13 20 8 28 8 28 -2z
m-60 -10 c0 -6 -4 -13 -10 -16 -5 -3 -10 1 -10 9 0 9 5 16 10 16 6 0 10 -4 10
-9z m-250 -21 c0 -5 -4 -10 -10 -10 -5 0 -10 5 -10 10 0 6 5 10 10 10 6 0 10
-4 10 -10z m376 -17 c-7 -7 -26 7 -26 19 0 6 6 6 15 -2 9 -7 13 -15 11 -17z
m34 7 c0 -5 -4 -10 -10 -10 -5 0 -10 5 -10 10 0 6 5 10 10 10 6 0 10 -4 10
-10z m-425 -20 c3 -5 1 -10 -4 -10 -6 0 -11 5 -11 10 0 6 2 10 4 10 3 0 8 -4
11 -10z m135 -4 c0 -3 -4 -8 -10 -11 -5 -3 -10 -1 -10 4 0 6 5 11 10 11 6 0
10 -2 10 -4z m-60 -16 c0 -5 -5 -10 -11 -10 -5 0 -7 5 -4 10 3 6 8 10 11 10 2
0 4 -4 4 -10z m-35 -20 c3 -5 -1 -10 -9 -10 -9 0 -16 5 -16 10 0 6 4 10 9 10
6 0 13 -4 16 -10z m-45 -22 c0 -6 -6 -5 -15 2 -8 7 -15 14 -15 16 0 2 7 1 15
-2 8 -4 15 -11 15 -16z m75 12 c3 -5 1 -10 -4 -10 -6 0 -11 5 -11 10 0 6 2 10
4 10 3 0 8 -4 11 -10z m-15 -30 c0 -5 -4 -10 -10 -10 -5 0 -10 5 -10 10 0 6 5
10 10 10 6 0 10 -4 10 -10z m80 -16 c0 -8 -4 -12 -10 -9 -5 3 -10 10 -10 16 0
5 5 9 10 9 6 0 10 -7 10 -16z m180 6 c0 -5 -5 -10 -11 -10 -5 0 -7 5 -4 10 3
6 8 10 11 10 2 0 4 -4 4 -10z m-355 -10 c3 -5 -1 -10 -10 -10 -9 0 -13 5 -10
10 3 6 8 10 10 10 2 0 7 -4 10 -10z m150 -48 c-8 -8 -26 39 -19 50 5 8 11 1
16 -17 4 -16 6 -31 3 -33z m144 33 c11 -4 11 -8 1 -20 -8 -9 -17 -12 -24 -7
-6 5 -24 12 -39 16 -15 4 -25 10 -23 15 6 8 58 6 85 -4z m-208 -39 c5 3 9 0 9
-6 0 -15 -23 -7 -26 8 -1 7 0 8 3 2 2 -5 9 -8 14 -4z m79 -16 c0 -5 -7 -10
-15 -10 -8 0 -15 5 -15 10 0 6 7 10 15 10 8 0 15 -4 15 -10z m60 -30 c0 -5 -2
-10 -4 -10 -3 0 -8 5 -11 10 -3 6 -1 10 4 10 6 0 11 -4 11 -10z"/>
<path d="M3920 820 c-19 -4 -56 -12 -82 -17 -55 -12 -100 -45 -123 -93 -15
-31 -15 -35 0 -46 24 -18 170 -17 205 1 39 20 57 19 65 -6 4 -11 5 -23 2 -25
-2 -3 -42 -11 -88 -20 -95 -16 -179 -53 -209 -91 -45 -58 -16 -187 48 -211
120 -45 171 -42 243 15 13 11 17 9 27 -12 11 -24 15 -25 104 -25 51 0 99 4
106 8 15 10 18 315 3 376 -15 62 -69 108 -156 134 -79 23 -90 24 -145 12z
m124 -51 c-3 -5 -10 -7 -15 -3 -5 3 -7 10 -3 15 3 5 10 7 15 3 5 -3 7 -10 3
-15z m-194 1 c0 -5 -4 -10 -10 -10 -5 0 -10 5 -10 10 0 6 5 10 10 10 6 0 10
-4 10 -10z m33 3 c-7 -2 -13 -11 -13 -19 0 -9 -4 -13 -10 -9 -14 9 0 35 19 34
10 0 11 -2 4 -6z m77 -13 c0 -5 -5 -10 -11 -10 -5 0 -7 5 -4 10 3 6 8 10 11
10 2 0 4 -4 4 -10z m-127 -23 c3 -7 -3 -13 -12 -14 -10 -1 -18 5 -18 13 0 18
23 19 30 1z m207 -18 c0 -6 -4 -7 -10 -4 -5 3 -10 1 -10 -4 0 -6 -4 -11 -10
-11 -14 0 -12 27 3 33 15 5 27 -1 27 -14z m-90 1 c0 -5 -4 -10 -10 -10 -5 0
-10 5 -10 10 0 6 5 10 10 10 6 0 10 -4 10 -10z m-70 -30 c-20 -13 -33 -13 -25
0 3 6 14 10 23 10 15 0 15 -2 2 -10z m190 -40 c0 -5 -4 -10 -10 -10 -5 0 -10
5 -10 10 0 6 5 10 10 10 6 0 10 -4 10 -10z m-105 -60 c-3 -5 -14 -10 -23 -10
-15 0 -15 2 -2 10 20 13 33 13 25 0z m-67 -23 c2 -8 -1 -18 -7 -21 -14 -9 -42
4 -34 17 3 6 1 7 -5 3 -7 -4 -12 -14 -12 -22 0 -10 -7 -14 -20 -12 -12 2 -19
8 -18 13 2 6 6 9 9 8 3 -1 11 7 19 17 16 22 64 20 68 -3z m182 -13 c0 -8 -4
-12 -10 -9 -5 3 -10 10 -10 16 0 5 5 9 10 9 6 0 10 -7 10 -16z m-303 -52 c1
-12 -2 -22 -7 -22 -6 0 -10 5 -10 10 0 6 -4 10 -10 10 -5 0 -7 -7 -4 -15 4 -8
2 -15 -4 -15 -5 0 -12 9 -15 21 -4 13 -10 18 -18 13 -13 -7 -6 8 14 34 14 17
49 -6 54 -36z m143 38 c0 -5 -5 -10 -11 -10 -5 0 -7 5 -4 10 3 6 8 10 11 10 2
0 4 -4 4 -10z m-60 -30 c0 -6 -7 -13 -15 -16 -22 -9 -18 -24 8 -25 l22 -2 -23
-4 c-19 -4 -21 -7 -11 -19 9 -11 8 -14 -2 -14 -11 0 -11 -2 1 -10 11 -8 8 -9
-12 -4 -21 4 -33 0 -53 -20 -34 -34 -41 -33 -16 3 12 16 21 33 21 38 0 4 9 14
20 21 12 7 18 18 14 24 -4 6 1 17 11 25 22 16 35 17 35 3z m50 -10 c0 -24 9
-25 36 -5 26 20 44 19 44 -3 0 -32 -29 -62 -61 -62 -26 0 -29 3 -24 20 4 11 2
20 -4 20 -6 0 -11 11 -11 25 0 14 5 25 10 25 6 0 10 -9 10 -20z m-210 -50 c0
-5 -4 -10 -10 -10 -5 0 -10 5 -10 10 0 6 5 10 10 10 6 0 10 -4 10 -10z m44
-15 c-10 -26 -37 -35 -53 -18 -12 13 -11 14 8 8 15 -5 21 -2 21 9 0 9 7 16 15
16 9 0 12 -6 9 -15z m148 -36 c-9 -10 -23 -19 -32 -19 -12 0 -13 2 -1 9 8 5
11 15 8 23 -4 11 1 14 18 10 22 -4 22 -5 7 -23z m-57 -9 c3 -5 -1 -10 -9 -10
-9 0 -16 5 -16 10 0 6 4 10 9 10 6 0 13 -4 16 -10z m-105 -30 c12 -8 11 -10
-7 -10 -13 0 -23 5 -23 10 0 13 11 13 30 0z m160 -1 c0 -5 5 -7 11 -3 11 7 29
-12 29 -31 0 -5 -4 -4 -9 4 -5 8 -18 12 -30 8 -16 -4 -21 -1 -21 14 0 10 5 19
10 19 6 0 10 -5 10 -11z m170 -33 c0 -3 -4 -8 -10 -11 -5 -3 -10 -1 -10 4 0 6
5 11 10 11 6 0 10 -2 10 -4z"/>
<path d="M3725 520 c-3 -5 1 -10 10 -10 9 0 13 5 10 10 -3 6 -8 10 -10 10 -2
0 -7 -4 -10 -10z"/>
<path d="M3800 440 c0 -5 7 -10 16 -10 8 0 12 5 9 10 -3 6 -10 10 -16 10 -5 0
-9 -4 -9 -10z"/>
<path d="M4293 809 c-14 -14 50 -190 128 -355 10 -22 19 -44 19 -49 0 -4 12
-32 26 -62 l27 -54 100 3 101 3 12 42 c7 23 21 52 32 63 11 12 23 36 26 54 3
17 15 48 26 69 11 20 20 44 20 52 0 9 13 42 29 73 37 72 57 140 45 151 -5 5
-40 10 -79 11 -127 4 -118 8 -147 -67 -41 -107 -42 -114 -22 -106 12 4 15 3
10 -5 -4 -7 -14 -12 -21 -12 -8 0 -17 -11 -21 -25 -3 -14 -9 -25 -13 -25 -11
0 -29 42 -37 86 -10 56 -50 140 -69 148 -27 10 -53 7 -58 -6 -4 -9 -8 -10 -14
-2 -11 15 -108 25 -120 13z m187 -22 c0 -7 -7 -23 -16 -35 -8 -12 -12 -27 -9
-32 3 -6 2 -10 -4 -10 -20 0 -24 23 -6 37 11 7 13 13 7 13 -9 0 -9 5 0 20 14
23 28 26 28 7z m321 -20 c-6 -8 -8 -16 -5 -20 3 -3 -4 -3 -15 0 -20 5 -20 6
-4 19 23 17 39 18 24 1z m-286 -45 c-8 -9 -25 20 -18 31 3 5 10 2 15 -7 6 -10
7 -20 3 -24z m-115 18 c0 -5 -4 -10 -10 -10 -5 0 -10 5 -10 10 0 6 5 10 10 10
6 0 10 -4 10 -10z m340 0 c0 -5 -4 -10 -10 -10 -5 0 -10 5 -10 10 0 6 5 10 10
10 6 0 10 -4 10 -10z m-60 -21 c0 -6 -4 -7 -10 -4 -5 3 -10 11 -10 16 0 6 5 7
10 4 6 -3 10 -11 10 -16z m120 -31 c0 -15 5 -19 20 -15 11 3 20 2 20 -3 0 -4
-12 -11 -27 -15 -21 -5 -24 -8 -12 -16 9 -5 10 -9 2 -9 -7 0 -22 -10 -33 -22
l-22 -23 7 36 c4 23 3 39 -4 43 -6 4 -11 2 -11 -3 0 -6 -4 -11 -9 -11 -5 0 -4
11 2 25 12 24 12 24 21 5 5 -11 15 -20 23 -20 16 0 17 12 1 28 -6 6 -13 19
-14 27 -2 12 2 13 17 5 10 -6 19 -20 19 -32z m35 22 c-10 -11 -20 -18 -23 -15
-7 6 18 35 31 35 5 0 2 -9 -8 -20z m-125 -10 c0 -11 -4 -20 -10 -20 -5 0 -10
9 -10 20 0 11 5 20 10 20 6 0 10 -9 10 -20z m-175 0 c3 -5 -1 -10 -9 -10 -9 0
-16 5 -16 10 0 6 4 10 9 10 6 0 13 -4 16 -10z m-45 -20 c0 -5 -4 -10 -10 -10
-5 0 -10 5 -10 10 0 6 5 10 10 10 6 0 10 -4 10 -10z m-80 -4 c0 -2 -7 -9 -15
-16 -12 -10 -15 -10 -15 4 0 9 7 16 15 16 8 0 15 -2 15 -4z m54 -25 c-2 -3
-12 3 -22 13 -16 17 -16 18 5 5 12 -7 20 -15 17 -18z m265 -26 c6 3 11 0 11
-8 0 -12 -21 -16 -50 -8 -3 0 -6 12 -6 26 l-2 26 19 -22 c10 -11 23 -18 28
-14z m-299 15 c0 -5 -4 -10 -10 -10 -5 0 -10 5 -10 10 0 6 5 10 10 10 6 0 10
-4 10 -10z m46 -25 c-3 -8 -1 -15 5 -15 6 0 8 -9 4 -21 -5 -15 -2 -22 14 -26
21 -5 28 -23 14 -36 -3 -4 -11 -3 -17 3 -8 6 -12 3 -12 -9 0 -10 7 -18 16 -17
8 1 16 -9 18 -21 2 -13 -1 -23 -7 -23 -6 0 -11 4 -11 9 0 5 -9 13 -21 16 -16
5 -20 13 -16 31 2 14 0 27 -5 30 -6 4 -6 9 1 14 9 5 9 14 1 34 -11 29 -6 46
12 46 5 0 8 -7 4 -15z m78 -10 c3 -8 1 -15 -4 -15 -6 0 -10 7 -10 15 0 8 2 15
4 15 2 0 6 -7 10 -15z m11 -35 c3 -6 3 -20 -1 -32 l-7 -23 -8 23 c-5 12 -16
22 -24 22 -9 0 -13 5 -10 10 8 13 42 13 50 0z m75 -5 c9 6 11 4 5 -5 -6 -10
-4 -12 11 -6 15 6 17 5 6 -6 -14 -14 -43 -1 -50 23 -3 12 -2 12 6 0 6 -8 15
-10 22 -6z m115 6 c3 -5 1 -12 -4 -16 -6 -3 -8 -12 -4 -20 3 -8 0 -15 -6 -15
-6 0 -10 3 -10 8 3 19 -2 33 -11 27 -5 -3 -10 -2 -10 4 0 9 15 18 32 20 4 1 9
-3 13 -8z m-333 -43 c-15 -15 -26 -4 -18 18 5 13 9 15 18 6 9 -9 9 -15 0 -24z
m194 -25 c-10 -10 -19 5 -10 18 6 11 8 11 12 0 2 -7 1 -15 -2 -18z m66 15 c-9
-9 -15 -9 -24 0 -9 9 -7 12 12 12 19 0 21 -3 12 -12z m-132 -18 c0 -5 -4 -10
-10 -10 -5 0 -10 5 -10 10 0 6 5 10 10 10 6 0 10 -4 10 -10z m-104 -37 c-10
-10 -19 5 -10 18 6 11 8 11 12 0 2 -7 1 -15 -2 -18z m291 5 c-3 -8 -6 -5 -6 6
-1 11 2 17 5 13 3 -3 4 -12 1 -19z m-53 -29 c-6 -11 -24 -2 -24 11 0 5 7 7 15
4 8 -4 12 -10 9 -15z m-126 -14 c-3 -3 -9 2 -12 12 -6 14 -5 15 5 6 7 -7 10
-15 7 -18z m92 19 c0 -3 -6 -11 -13 -18 -10 -10 -16 -9 -31 6 -19 18 -19 18
12 18 18 0 32 -3 32 -6z m-120 -28 c0 -3 -4 -8 -10 -11 -5 -3 -10 -1 -10 4 0
6 5 11 10 11 6 0 10 -2 10 -4z m70 -16 c0 -5 -4 -10 -10 -10 -5 0 -10 5 -10
10 0 6 5 10 10 10 6 0 10 -4 10 -10z"/>
<path d="M5989 811 c-32 -4 -61 -18 -93 -45 -68 -56 -79 -83 -84 -213 l-5
-113 38 -54 c34 -50 43 -56 114 -81 69 -25 84 -27 165 -21 120 8 157 21 207
72 35 36 44 53 54 107 17 90 9 160 -26 233 -27 57 -33 63 -91 89 -51 23 -79
29 -148 31 -47 1 -106 -1 -131 -5z m25 -26 c3 -9 0 -15 -9 -15 -8 0 -15 -5
-15 -12 0 -6 -9 -3 -20 7 -11 10 -20 13 -20 7 0 -7 -5 -12 -11 -12 -6 0 -9 6
-6 13 2 6 11 12 20 12 8 0 19 4 23 8 12 12 31 8 38 -8z m30 -10 c-4 -8 -8 -15
-10 -15 -2 0 -4 7 -4 15 0 8 4 15 10 15 5 0 7 -7 4 -15z m70 -17 c-7 -10 -34
-10 -34 0 0 4 5 13 12 20 9 9 14 9 19 0 4 -7 5 -16 3 -20z m-183 -38 c5 0 9
-5 9 -12 0 -6 -3 -8 -7 -5 -3 4 -12 2 -20 -4 -11 -9 -12 -5 -9 22 6 45 8 48
13 22 2 -13 9 -23 14 -23z m104 10 c-3 -5 -1 -11 4 -14 5 -3 8 -32 6 -63 -4
-73 -3 -69 -17 -55 -7 7 -17 12 -22 12 -6 0 -5 -4 3 -9 7 -5 10 -14 6 -21 -5
-8 -11 -8 -17 -2 -6 6 -18 8 -27 5 -13 -5 -12 -3 2 8 17 14 16 16 -13 37 -24
18 -28 25 -18 36 11 11 14 11 23 0 6 -8 23 -12 40 -10 33 4 40 28 17 58 -15
18 -8 43 9 32 5 -3 7 -9 4 -14z m-51 4 c8 -3 12 -12 9 -20 -4 -10 0 -12 11 -8
9 3 16 1 16 -6 0 -7 -11 -9 -31 -6 -38 6 -41 9 -33 30 7 18 7 18 28 10z m233
-21 c0 -8 -7 -11 -14 -8 -8 3 -17 5 -19 5 -3 0 -3 4 0 8 8 14 33 10 33 -5z
m73 -13 c0 -5 -7 -7 -15 -4 -8 4 -15 8 -15 10 0 2 7 4 15 4 8 0 15 -4 15 -10z
m-370 -51 c7 -11 9 -24 5 -27 -7 -7 -35 25 -35 40 0 16 19 8 30 -13z m280 11
c0 -5 -4 -10 -10 -10 -5 0 -10 5 -10 10 0 6 5 10 10 10 6 0 10 -4 10 -10z
m-319 -14 c0 -3 6 -20 13 -38 15 -37 11 -58 -10 -58 -16 0 -19 16 -4 25 13 8
1 35 -17 35 -8 0 -11 5 -8 10 3 6 1 10 -4 10 -18 0 -12 18 7 22 18 5 24 3 23
-6z m241 -2 l30 -16 -4 -79 c-6 -94 -20 -117 -65 -102 l-28 10 3 88 c2 76 12
115 29 115 2 0 18 -7 35 -16z m188 -65 c0 -6 -4 -7 -10 -4 -5 3 -10 11 -10 16
0 6 5 7 10 4 6 -3 10 -11 10 -16z m-270 -34 c0 -17 -50 -29 -63 -16 -8 8 -3
11 16 11 15 0 26 3 26 8 -3 16 2 23 11 17 6 -3 10 -12 10 -20z m-192 -4 c3 -8
-1 -12 -9 -9 -7 2 -15 10 -17 17 -3 8 1 12 9 9 7 -2 15 -10 17 -17z m77 9 c3
-5 1 -10 -4 -10 -6 0 -11 5 -11 10 0 6 2 10 4 10 3 0 8 -4 11 -10z m349 -5
c-4 -8 -8 -15 -10 -15 -2 0 -4 7 -4 15 0 8 4 15 10 15 5 0 7 -7 4 -15z m-384
-15 c0 -5 -5 -10 -11 -10 -5 0 -7 5 -4 10 3 6 8 10 11 10 2 0 4 -4 4 -10z m79
-34 c13 -7 20 -16 15 -19 -5 -3 -21 3 -34 14 -29 21 -17 25 19 5z m-89 -22 c0
-8 -4 -12 -10 -9 -5 3 -10 10 -10 16 0 5 5 9 10 9 6 0 10 -7 10 -16z m100
-107 c0 -4 -6 -2 -14 5 -8 7 -12 17 -9 22 5 8 23 -12 23 -27z m60 18 c0 -8 -7
-15 -16 -15 -14 0 -14 3 -4 15 7 8 14 15 16 15 2 0 4 -7 4 -15z m-160 -5 c0
-5 -2 -10 -4 -10 -3 0 -8 5 -11 10 -3 6 -1 10 4 10 6 0 11 -4 11 -10z"/>
<path d="M5990 630 c0 -5 5 -10 10 -10 6 0 10 5 10 10 0 6 -4 10 -10 10 -5 0
-10 -4 -10 -10z"/>
<path d="M4959 723 c-3 -177 0 -414 5 -422 9 -13 75 -19 146 -12 l65 6 7 50
c13 87 9 448 -5 457 -7 4 -58 8 -114 8 l-103 0 -1 -87z m116 -13 c3 -5 1 -10
-4 -10 -6 0 -11 5 -11 10 0 6 2 10 4 10 3 0 8 -4 11 -10z m-57 -34 c-10 -7
-18 -23 -18 -35 0 -11 -4 -21 -9 -21 -5 0 -7 9 -4 20 3 11 0 20 -6 20 -20 0
-11 19 12 23 39 8 42 7 25 -7z m92 -22 c0 -8 -4 -12 -10 -9 -5 3 -10 10 -10
16 0 5 5 9 10 9 6 0 10 -7 10 -16z m-40 -114 c0 -5 -2 -10 -4 -10 -3 0 -8 5
-11 10 -3 6 -1 10 4 10 6 0 11 -4 11 -10z m57 -78 c4 -31 -14 -28 -20 3 -2 15
0 24 6 22 6 -2 12 -13 14 -25z"/>
</g>
</svg>
