<?xml version="1.0" standalone="no"?>
<!DOCTYPE svg PUBLIC "-//W3C//DTD SVG 20010904//EN"
 "http://www.w3.org/TR/2001/REC-SVG-20010904/DTD/svg10.dtd">
<svg version="1.0" xmlns="http://www.w3.org/2000/svg"
 width="247.000000pt" height="229.000000pt" viewBox="0 0 247.000000 229.000000"
 preserveAspectRatio="xMidYMid meet">

<g transform="translate(0.000000,229.000000) scale(0.100000,-0.100000)"
fill="#000000" stroke="none">
<path d="M1230 2284 c-14 -2 -59 -9 -100 -15 -234 -34 -482 -167 -654 -350
-96 -101 -172 -223 -231 -369 l-51 -125 -78 -3 -77 -3 -17 -37 c-15 -33 -17
-97 -20 -582 l-3 -545 30 -29 c16 -15 44 -31 63 -35 26 -5 41 -19 71 -65 51
-76 113 -116 181 -116 86 1 171 54 202 127 30 70 79 68 260 -12 68 -30 168
-67 221 -82 94 -26 109 -27 373 -29 313 -2 307 -3 410 85 30 26 95 76 145 112
165 117 279 250 370 434 101 205 119 293 113 543 -5 155 -8 188 -32 266 -104
343 -376 636 -702 755 -139 51 -387 90 -474 75z m109 -101 c17 -21 38 -57 47
-80 15 -40 15 -44 -1 -69 -20 -31 -114 -77 -208 -101 -61 -16 -70 -16 -95 -3
-16 9 -38 39 -55 73 -21 45 -35 61 -62 73 -47 19 -78 18 -106 -5 -23 -19 -24
-23 -21 -156 2 -133 2 -138 -27 -198 -36 -75 -82 -132 -184 -226 l-77 -71
-107 1 c-143 2 -167 7 -171 39 -4 37 95 231 165 325 199 263 505 431 790 434
l82 1 30 -37z m205 17 c103 -26 225 -76 319 -129 77 -45 151 -100 144 -107 -2
-3 -48 7 -102 21 -107 27 -224 33 -265 12 -33 -17 -69 -72 -77 -120 -7 -43
-17 -50 -103 -67 -130 -25 -176 -107 -105 -184 30 -33 51 -33 186 1 l107 27
91 -42 c50 -24 117 -47 148 -53 59 -11 103 -32 103 -49 0 -6 -46 -10 -114 -10
l-114 0 -42 35 c-113 94 -309 65 -435 -64 l-49 -51 -288 0 c-159 0 -288 3
-288 6 0 3 36 47 81 97 78 88 121 157 141 222 5 16 9 85 8 152 0 74 4 124 11
128 24 16 55 -6 82 -58 45 -87 58 -97 127 -97 119 0 299 81 335 150 26 49 20
77 -36 167 l-21 33 40 0 c21 0 74 -9 116 -20z m291 -261 c78 -13 220 -56 268
-80 22 -12 57 -46 84 -82 57 -77 143 -251 150 -304 7 -51 -25 -115 -105 -211
l-60 -72 15 -47 c23 -75 13 -111 -56 -206 -78 -107 -96 -144 -118 -240 -13
-56 -22 -77 -32 -75 -9 2 -73 71 -144 153 -70 83 -145 169 -166 193 l-37 42
-152 0 -152 0 0 172 c0 108 -4 184 -12 205 -11 29 -10 35 11 57 53 56 217 102
296 82 14 -4 41 -22 59 -40 l33 -33 154 -11 c136 -9 156 -9 172 5 23 21 22 58
-4 94 -26 36 -44 46 -133 71 -39 10 -100 33 -136 51 -86 41 -156 46 -248 18
-39 -11 -84 -21 -101 -21 -29 0 -31 2 -31 36 0 31 4 37 35 50 19 7 52 14 72
14 53 0 81 23 109 89 14 31 30 66 36 78 16 31 63 34 193 12z m-562 -691 c4
-66 7 -251 7 -410 l0 -288 -615 0 -615 0 1 318 c1 174 4 355 7 402 7 79 9 85
32 91 14 4 284 7 601 8 l576 1 6 -122z m1111 -101 c-1 -151 -4 -184 -27 -269
-44 -168 -126 -319 -245 -456 -74 -85 -120 -120 -133 -101 -17 25 -2 130 29
199 17 36 42 110 56 165 19 71 37 115 64 153 145 205 141 196 122 289 l-12 64
49 52 c28 29 56 63 62 76 10 17 16 20 24 12 8 -8 12 -66 11 -184z m-786 -213
c67 -10 25 -34 -60 -34 l-48 0 0 -160 0 -160 103 0 c56 0 153 -3 215 -7 l112
-6 0 -159 0 -158 -27 0 c-37 0 -47 8 -71 56 -42 83 -122 129 -213 122 -68 -5
-117 -35 -151 -92 -37 -62 -64 -86 -98 -86 l-30 0 0 350 0 351 118 -6 c64 -3
132 -8 150 -11z m185 -178 c42 -52 77 -101 77 -109 0 -19 -46 -23 -197 -19
l-113 3 0 110 0 109 78 0 77 0 78 -94z m-503 -391 l0 -115 -357 0 -358 0 -19
45 c-21 51 -82 109 -134 126 -19 6 -58 9 -87 7 -66 -6 -113 -39 -160 -113 -19
-29 -41 -55 -50 -59 -27 -10 -55 12 -55 43 0 15 -3 62 -6 104 l-7 77 617 0
616 0 0 -115z m-842 -15 c41 -25 62 -73 62 -140 0 -45 -4 -55 -37 -91 -43 -46
-95 -62 -147 -48 -132 36 -159 200 -46 276 44 30 121 31 168 3z m1279 0 c73
-44 88 -163 29 -228 -32 -36 -70 -52 -125 -52 -44 0 -54 4 -96 42 -45 42 -46
45 -47 102 0 65 16 95 72 134 43 29 121 30 167 2z m-282 -210 c14 -27 25 -54
25 -60 0 -16 -254 -12 -353 5 -91 16 -150 33 -232 69 l-50 21 65 6 c36 3 167
6 292 7 l228 2 25 -50z"/>
<path d="M630 1268 c-19 -12 -76 -45 -126 -75 -133 -78 -127 -67 -128 -237 -1
-129 1 -146 18 -165 24 -27 255 -161 276 -161 8 0 76 35 150 78 l135 78 3 169
2 170 -141 80 c-78 44 -144 81 -148 82 -3 1 -22 -8 -41 -19z m137 -100 c51
-28 93 -55 93 -59 0 -10 -40 -37 -123 -83 l-68 -37 -67 39 c-101 58 -112 66
-112 79 0 12 155 113 174 113 5 0 52 -23 103 -52z m-152 -214 c17 -13 20 -29
23 -107 2 -51 0 -102 -5 -114 -8 -22 -10 -21 -98 30 l-90 53 -3 118 -3 118 78
-42 c43 -23 87 -48 98 -56z m283 -20 l-3 -117 -85 -48 c-47 -27 -90 -49 -96
-49 -19 0 -25 47 -18 136 l7 83 91 55 c50 30 95 55 99 56 4 0 6 -52 5 -116z"/>
<path d="M303 306 c-37 -17 -53 -43 -53 -86 0 -42 15 -67 52 -86 98 -51 199
73 120 149 -34 33 -77 41 -119 23z m84 -64 c19 -24 -6 -57 -43 -57 -24 0 -30
5 -32 28 -6 53 42 72 75 29z"/>
<path d="M1578 305 c-100 -56 -34 -209 78 -181 39 10 74 53 74 92 0 72 -89
124 -152 89z m89 -63 c19 -24 -6 -57 -43 -57 -24 0 -30 5 -32 28 -6 53 42 72
75 29z"/>
</g>
</svg>
